<svg width="259" height="35" viewBox="0 0 259 35" fill="none" xmlns="http://www.w3.org/2000/svg">
<path d="M34.272 2.16C34.4 2.768 34.4 3.408 34.272 4.08C34.208 4.4 34.144 4.72 34.08 5.04C34.048 5.328 34 5.632 33.936 5.952L33.888 6.144C33.44 8.128 32.928 10.224 32.352 12.432C31.808 14.608 31.312 16.672 30.864 18.624C30.48 20.224 30.08 21.984 29.664 23.904C29.248 25.824 28.816 27.584 28.368 29.184C28.208 29.728 28.032 30.272 27.84 30.816C27.68 31.36 27.472 31.904 27.216 32.448C26.992 32.928 26.72 33.36 26.4 33.744C26.112 34.096 25.776 34.352 25.392 34.512C25.008 34.704 24.592 34.768 24.144 34.704C23.728 34.672 23.264 34.48 22.752 34.128C21.984 33.584 21.408 32.832 21.024 31.872C20.672 30.912 20.304 30.032 19.92 29.232C19.792 29.008 19.6 28.512 19.344 27.744C19.088 26.976 18.816 26.144 18.528 25.248C18.24 24.32 17.952 23.44 17.664 22.608C17.408 21.744 17.184 21.104 16.992 20.688C16.704 21.392 16.416 22.192 16.128 23.088C15.84 23.984 15.568 24.864 15.312 25.728C15.056 26.592 14.816 27.376 14.592 28.08C14.4 28.752 14.256 29.248 14.16 29.568C13.904 30.208 13.616 30.912 13.296 31.68C13.008 32.448 12.64 33.104 12.192 33.648C11.776 34.192 11.264 34.544 10.656 34.704C10.048 34.896 9.328 34.72 8.496 34.176C7.856 33.792 7.408 33.248 7.152 32.544C6.992 32.096 6.832 31.664 6.672 31.248C6.512 30.832 6.384 30.4 6.288 29.952L5.328 26.352L3.36 18.624C3.104 17.632 2.848 16.624 2.592 15.6C2.368 14.544 2.096 13.456 1.776 12.336C1.616 11.792 1.472 11.264 1.344 10.752C1.248 10.208 1.136 9.632 1.008 9.024C0.912002 8.384 0.784002 7.664 0.624002 6.864C0.496002 6.064 0.336002 5.136 0.144002 4.08C0.0800019 3.728 0.0320019 3.408 1.96695e-06 3.12C1.96695e-06 2.8 0.032002 2.48 0.096002 2.16C0.160002 1.68 0.384002 1.264 0.768002 0.912003C0.928002 0.752001 1.12 0.624001 1.344 0.528002C1.568 0.432001 1.808 0.352001 2.064 0.288002C2.448 0.160002 2.848 0.0960016 3.264 0.0960016C3.648 0.0960016 4.048 0.224002 4.464 0.480002C4.752 0.640002 4.976 0.848001 5.136 1.104L5.712 2.112C5.776 2.336 5.84 2.544 5.904 2.736C5.968 2.896 6.032 3.072 6.096 3.264C6.16 3.488 6.208 3.696 6.24 3.888C6.272 4.048 6.304 4.208 6.336 4.368C6.624 6.032 6.976 7.648 7.392 9.216C7.808 10.784 8.192 12.288 8.544 13.728C8.672 14.304 8.832 15.024 9.024 15.888C9.216 16.72 9.408 17.6 9.6 18.528C9.792 19.424 9.984 20.288 10.176 21.12C10.368 21.952 10.56 22.608 10.752 23.088C11.168 21.648 11.584 20.208 12 18.768C12.448 17.328 12.928 15.872 13.44 14.4C13.696 13.632 13.952 12.944 14.208 12.336C14.496 11.696 14.816 11.168 15.168 10.752C15.52 10.336 15.92 10.064 16.368 9.936C16.816 9.808 17.344 9.856 17.952 10.08C18.496 10.304 18.976 10.784 19.392 11.52C19.808 12.256 20.176 13.008 20.496 13.776C20.784 14.48 21.056 15.232 21.312 16.032C21.6 16.8 21.872 17.568 22.128 18.336C22.416 19.072 22.688 19.776 22.944 20.448C23.2 21.12 23.456 21.696 23.712 22.176C23.808 21.824 23.92 21.376 24.048 20.832C24.176 20.288 24.304 19.712 24.432 19.104C24.592 18.464 24.736 17.84 24.864 17.232C24.992 16.624 25.12 16.064 25.248 15.552C25.664 13.824 26.096 12.096 26.544 10.368C26.992 8.608 27.424 6.88 27.84 5.184L28.08 4.368C28.144 4.208 28.176 4.048 28.176 3.888C28.208 3.696 28.256 3.488 28.32 3.264C28.384 3.072 28.448 2.896 28.512 2.736C28.576 2.544 28.64 2.336 28.704 2.112C28.768 1.952 28.832 1.792 28.896 1.632C28.992 1.44 29.104 1.264 29.232 1.104C29.328 0.944 29.44 0.816001 29.568 0.720002C29.696 0.624002 29.824 0.544002 29.952 0.480002C30.4 0.224002 30.784 0.0960016 31.104 0.0960016C31.52 0.0960016 31.92 0.160002 32.304 0.288002C32.816 0.384001 33.28 0.592001 33.696 0.912003C34.016 1.232 34.208 1.648 34.272 2.16ZM52.7955 27.648C53.1795 27.552 53.5635 27.488 53.9475 27.456C54.3635 27.424 54.7315 27.472 55.0515 27.6C55.4035 27.728 55.6915 27.952 55.9155 28.272C56.1395 28.56 56.2515 28.976 56.2515 29.52C56.2515 29.904 56.1555 30.272 55.9635 30.624C55.7715 30.976 55.5315 31.296 55.2435 31.584C54.9555 31.872 54.6355 32.128 54.2835 32.352C53.9315 32.544 53.5955 32.704 53.2755 32.832C52.3475 33.248 51.2755 33.568 50.0595 33.792C48.8755 34.016 47.6435 34.096 46.3635 34.032C44.6355 33.968 42.9715 33.632 41.3715 33.024C39.8035 32.384 38.5715 31.344 37.6755 29.904C36.8435 28.496 36.3475 26.928 36.1875 25.2C36.0275 23.472 36.1075 21.84 36.4275 20.304C36.7795 18.448 37.3715 16.944 38.2035 15.792C39.0675 14.608 40.0915 13.664 41.2755 12.96C42.7155 12.128 44.3315 11.696 46.1235 11.664C47.9155 11.632 49.6275 11.984 51.2595 12.72C52.3475 13.2 53.3235 13.856 54.1875 14.688C55.0515 15.488 55.7075 16.464 56.1555 17.616C56.2835 17.904 56.3795 18.256 56.4435 18.672C56.5395 19.088 56.6035 19.536 56.6355 20.016C56.6675 20.464 56.6675 20.912 56.6355 21.36C56.6035 21.808 56.5235 22.208 56.3955 22.56C56.2035 23.136 55.9635 23.584 55.6755 23.904C55.3875 24.224 55.0195 24.464 54.5715 24.624C54.1235 24.784 53.5795 24.896 52.9395 24.96C52.3315 24.992 51.5955 25.024 50.7315 25.056C49.9635 25.088 49.2435 25.104 48.5715 25.104C47.8995 25.104 47.2115 25.104 46.5075 25.104C45.8035 25.072 45.0675 25.056 44.2995 25.056C43.5635 25.024 42.7315 24.992 41.8035 24.96C41.7075 25.6 41.7875 26.16 42.0435 26.64C42.3315 27.088 42.7155 27.472 43.1955 27.792C43.6755 28.08 44.2195 28.304 44.8275 28.464C45.4355 28.624 46.0275 28.72 46.6035 28.752C47.6915 28.816 48.7315 28.736 49.7235 28.512C50.7155 28.256 51.7395 27.968 52.7955 27.648ZM50.7315 18.336C50.1235 17.632 49.4835 17.12 48.8115 16.8C48.2995 16.576 47.7555 16.48 47.1795 16.512C46.6355 16.512 46.1075 16.592 45.5955 16.752C44.6675 16.976 43.8835 17.456 43.2435 18.192C43.1795 18.256 43.0675 18.416 42.9075 18.672C42.7475 18.896 42.5875 19.136 42.4275 19.392C42.2995 19.648 42.2035 19.888 42.1395 20.112C42.0755 20.336 42.1075 20.448 42.2355 20.448H51.6435C51.6115 20 51.5315 19.632 51.4035 19.344C51.2755 19.024 51.0515 18.688 50.7315 18.336ZM109.178 2.16C109.306 2.768 109.306 3.408 109.178 4.08C109.114 4.4 109.05 4.72 108.986 5.04C108.954 5.328 108.906 5.632 108.842 5.952L108.794 6.144C108.346 8.128 107.834 10.224 107.258 12.432C106.714 14.608 106.218 16.672 105.77 18.624C105.386 20.224 104.986 21.984 104.57 23.904C104.154 25.824 103.722 27.584 103.274 29.184C103.114 29.728 102.938 30.272 102.746 30.816C102.586 31.36 102.378 31.904 102.122 32.448C101.898 32.928 101.626 33.36 101.306 33.744C101.018 34.096 100.682 34.352 100.298 34.512C99.9143 34.704 99.4983 34.768 99.0503 34.704C98.6343 34.672 98.1703 34.48 97.6583 34.128C96.8903 33.584 96.3143 32.832 95.9303 31.872C95.5783 30.912 95.2103 30.032 94.8263 29.232C94.6983 29.008 94.5063 28.512 94.2503 27.744C93.9943 26.976 93.7223 26.144 93.4343 25.248C93.1463 24.32 92.8583 23.44 92.5703 22.608C92.3143 21.744 92.0903 21.104 91.8983 20.688C91.6103 21.392 91.3223 22.192 91.0343 23.088C90.7463 23.984 90.4743 24.864 90.2183 25.728C89.9623 26.592 89.7223 27.376 89.4983 28.08C89.3063 28.752 89.1623 29.248 89.0663 29.568C88.8103 30.208 88.5223 30.912 88.2023 31.68C87.9143 32.448 87.5463 33.104 87.0983 33.648C86.6823 34.192 86.1703 34.544 85.5623 34.704C84.9543 34.896 84.2343 34.72 83.4023 34.176C82.7623 33.792 82.3143 33.248 82.0583 32.544C81.8983 32.096 81.7383 31.664 81.5783 31.248C81.4183 30.832 81.2903 30.4 81.1943 29.952L80.2343 26.352L78.2663 18.624C78.0103 17.632 77.7543 16.624 77.4983 15.6C77.2743 14.544 77.0023 13.456 76.6823 12.336C76.5223 11.792 76.3783 11.264 76.2503 10.752C76.1543 10.208 76.0423 9.632 75.9143 9.024C75.8183 8.384 75.6903 7.664 75.5303 6.864C75.4023 6.064 75.2423 5.136 75.0503 4.08C74.9863 3.728 74.9383 3.408 74.9063 3.12C74.9063 2.8 74.9383 2.48 75.0023 2.16C75.0663 1.68 75.2903 1.264 75.6743 0.912003C75.8343 0.752001 76.0263 0.624001 76.2503 0.528002C76.4743 0.432001 76.7143 0.352001 76.9703 0.288002C77.3543 0.160002 77.7543 0.0960016 78.1703 0.0960016C78.5543 0.0960016 78.9543 0.224002 79.3703 0.480002C79.6583 0.640002 79.8823 0.848001 80.0423 1.104L80.6183 2.112C80.6823 2.336 80.7463 2.544 80.8103 2.736C80.8743 2.896 80.9383 3.072 81.0023 3.264C81.0663 3.488 81.1143 3.696 81.1463 3.888C81.1783 4.048 81.2103 4.208 81.2423 4.368C81.5303 6.032 81.8823 7.648 82.2983 9.216C82.7143 10.784 83.0983 12.288 83.4503 13.728C83.5783 14.304 83.7383 15.024 83.9303 15.888C84.1223 16.72 84.3143 17.6 84.5063 18.528C84.6983 19.424 84.8903 20.288 85.0823 21.12C85.2743 21.952 85.4663 22.608 85.6583 23.088C86.0743 21.648 86.4903 20.208 86.9063 18.768C87.3543 17.328 87.8343 15.872 88.3463 14.4C88.6023 13.632 88.8583 12.944 89.1143 12.336C89.4023 11.696 89.7223 11.168 90.0743 10.752C90.4263 10.336 90.8263 10.064 91.2743 9.936C91.7223 9.808 92.2503 9.856 92.8583 10.08C93.4023 10.304 93.8823 10.784 94.2983 11.52C94.7143 12.256 95.0823 13.008 95.4023 13.776C95.6903 14.48 95.9623 15.232 96.2183 16.032C96.5063 16.8 96.7783 17.568 97.0343 18.336C97.3223 19.072 97.5943 19.776 97.8503 20.448C98.1063 21.12 98.3623 21.696 98.6183 22.176C98.7143 21.824 98.8263 21.376 98.9543 20.832C99.0823 20.288 99.2103 19.712 99.3383 19.104C99.4983 18.464 99.6423 17.84 99.7703 17.232C99.8983 16.624 100.026 16.064 100.154 15.552C100.57 13.824 101.002 12.096 101.45 10.368C101.898 8.608 102.33 6.88 102.746 5.184L102.986 4.368C103.05 4.208 103.082 4.048 103.082 3.888C103.114 3.696 103.162 3.488 103.226 3.264C103.29 3.072 103.354 2.896 103.418 2.736C103.482 2.544 103.546 2.336 103.61 2.112C103.674 1.952 103.738 1.792 103.802 1.632C103.898 1.44 104.01 1.264 104.138 1.104C104.234 0.944 104.346 0.816001 104.474 0.720002C104.602 0.624002 104.73 0.544002 104.858 0.480002C105.306 0.224002 105.69 0.0960016 106.01 0.0960016C106.426 0.0960016 106.826 0.160002 107.21 0.288002C107.722 0.384001 108.186 0.592001 108.602 0.912003C108.922 1.232 109.114 1.648 109.178 2.16ZM119.204 16.032C119.204 16.928 119.204 17.936 119.204 19.056C119.236 20.176 119.252 21.344 119.252 22.56C119.252 23.744 119.252 24.928 119.252 26.112C119.252 27.264 119.236 28.336 119.204 29.328C119.172 29.808 119.124 30.336 119.06 30.912C118.996 31.456 118.868 31.968 118.676 32.448C118.484 32.928 118.18 33.328 117.764 33.648C117.38 33.936 116.852 34.064 116.18 34.032C115.188 33.968 114.468 33.536 114.02 32.736C113.604 31.936 113.364 30.816 113.3 29.376C113.3 28.64 113.284 27.792 113.252 26.832C113.252 25.872 113.236 24.896 113.204 23.904C113.204 22.912 113.204 21.952 113.204 21.024C113.204 20.064 113.204 19.2 113.204 18.432C113.204 17.984 113.188 17.44 113.156 16.8C113.156 16.16 113.172 15.504 113.204 14.832C113.236 14.16 113.316 13.52 113.444 12.912C113.572 12.272 113.78 11.744 114.068 11.328C114.292 11.072 114.612 10.88 115.028 10.752C115.444 10.592 115.876 10.512 116.324 10.512C116.804 10.512 117.252 10.592 117.668 10.752C118.116 10.912 118.436 11.136 118.628 11.424C118.756 11.616 118.852 11.888 118.916 12.24C118.98 12.592 119.028 12.992 119.06 13.44C119.124 13.856 119.156 14.304 119.156 14.784C119.188 15.232 119.204 15.648 119.204 16.032ZM117.38 6.336C116.388 6.592 115.556 6.496 114.884 6.048C114.244 5.568 113.844 4.864 113.684 3.936C113.556 3.264 113.604 2.672 113.828 2.16C114.052 1.648 114.388 1.264 114.836 1.008C115.284 0.720001 115.796 0.592001 116.372 0.624001C116.948 0.656 117.524 0.88 118.1 1.296C118.644 1.68 119.028 2.128 119.252 2.64C119.508 3.152 119.588 3.648 119.492 4.128C119.428 4.608 119.22 5.056 118.868 5.472C118.516 5.856 118.02 6.144 117.38 6.336ZM130.275 30.384C130.243 30.544 130.211 30.704 130.179 30.864C130.179 30.992 130.179 31.136 130.179 31.296L129.891 32.304C129.827 32.432 129.779 32.512 129.747 32.544L129.603 32.832C129.443 33.184 129.155 33.472 128.739 33.696C127.971 34.08 127.155 34.176 126.291 33.984C125.747 33.92 125.315 33.76 124.995 33.504C124.675 33.28 124.451 33.008 124.323 32.688C124.195 32.368 124.099 32.048 124.035 31.728C123.939 31.408 123.891 31.12 123.891 30.864V3.984C123.891 3.76 123.891 3.568 123.891 3.408C123.923 3.216 123.955 3.04 123.987 2.88C124.019 2.656 124.051 2.464 124.083 2.304C124.147 2.144 124.211 1.968 124.275 1.776C124.371 1.456 124.547 1.2 124.803 1.008C125.187 0.720001 125.555 0.560001 125.907 0.528002C126.131 0.464001 126.339 0.432 126.531 0.432C126.723 0.400001 126.947 0.384001 127.203 0.384001C127.651 0.384001 128.163 0.512001 128.739 0.768002C129.187 1.024 129.507 1.376 129.699 1.824C130.019 2.464 130.179 3.056 130.179 3.6C130.211 3.92 130.227 4.4 130.227 5.04C130.259 5.68 130.275 6.16 130.275 6.48V6.672C130.339 7.696 130.371 8.688 130.371 9.648C130.371 10.576 130.355 11.6 130.323 12.72C130.323 13.808 130.307 14.864 130.275 15.888C130.275 16.88 130.275 17.872 130.275 18.864V28.944C130.275 29.072 130.275 29.2 130.275 29.328C130.307 29.424 130.323 29.536 130.323 29.664C130.323 29.984 130.307 30.224 130.275 30.384ZM142.65 30.384C142.618 30.544 142.586 30.704 142.554 30.864C142.554 30.992 142.554 31.136 142.554 31.296L142.266 32.304C142.202 32.432 142.154 32.512 142.122 32.544L141.978 32.832C141.818 33.184 141.53 33.472 141.114 33.696C140.346 34.08 139.53 34.176 138.666 33.984C138.122 33.92 137.69 33.76 137.37 33.504C137.05 33.28 136.826 33.008 136.698 32.688C136.57 32.368 136.474 32.048 136.41 31.728C136.314 31.408 136.266 31.12 136.266 30.864V3.984C136.266 3.76 136.266 3.568 136.266 3.408C136.298 3.216 136.33 3.04 136.362 2.88C136.394 2.656 136.426 2.464 136.458 2.304C136.522 2.144 136.586 1.968 136.65 1.776C136.746 1.456 136.922 1.2 137.178 1.008C137.562 0.720001 137.93 0.560001 138.282 0.528002C138.506 0.464001 138.714 0.432 138.906 0.432C139.098 0.400001 139.322 0.384001 139.578 0.384001C140.026 0.384001 140.538 0.512001 141.114 0.768002C141.562 1.024 141.882 1.376 142.074 1.824C142.394 2.464 142.554 3.056 142.554 3.6C142.586 3.92 142.602 4.4 142.602 5.04C142.634 5.68 142.65 6.16 142.65 6.48V6.672C142.714 7.696 142.746 8.688 142.746 9.648C142.746 10.576 142.73 11.6 142.698 12.72C142.698 13.808 142.682 14.864 142.65 15.888C142.65 16.88 142.65 17.872 142.65 18.864V28.944C142.65 29.072 142.65 29.2 142.65 29.328C142.682 29.424 142.698 29.536 142.698 29.664C142.698 29.984 142.682 30.224 142.65 30.384ZM185.833 20.256C185.993 20.704 186.105 21.216 186.169 21.792C186.265 22.336 186.313 22.896 186.313 23.472C186.313 24.048 186.265 24.624 186.169 25.2C186.105 25.744 186.009 26.224 185.881 26.64C185.369 28.432 184.345 29.936 182.809 31.152C181.273 32.336 179.513 33.2 177.529 33.744C175.577 34.288 173.545 34.48 171.433 34.32C169.353 34.16 167.497 33.632 165.865 32.736C164.841 32.16 163.961 31.456 163.225 30.624C162.489 29.792 161.865 28.864 161.353 27.84C161.161 27.488 161.033 27.088 160.969 26.64C160.937 26.16 160.985 25.712 161.113 25.296C161.241 24.848 161.449 24.464 161.737 24.144C162.025 23.792 162.425 23.552 162.937 23.424C163.257 23.36 163.609 23.328 163.993 23.328C164.409 23.328 164.809 23.392 165.193 23.52C165.577 23.616 165.929 23.792 166.249 24.048C166.569 24.272 166.825 24.592 167.017 25.008C167.369 25.68 167.865 26.304 168.505 26.88C169.177 27.424 169.881 27.872 170.617 28.224C171.673 28.576 172.729 28.72 173.785 28.656C174.873 28.592 175.849 28.352 176.713 27.936C177.609 27.52 178.329 26.96 178.873 26.256C179.417 25.52 179.689 24.688 179.689 23.76C179.689 22.992 179.577 22.368 179.353 21.888C179.129 21.376 178.809 20.96 178.393 20.64C178.009 20.288 177.529 20 176.953 19.776C176.409 19.552 175.801 19.36 175.129 19.2C174.361 19.04 173.577 18.928 172.777 18.864C172.009 18.8 171.225 18.72 170.425 18.624C169.625 18.528 168.841 18.4 168.073 18.24C167.305 18.08 166.553 17.84 165.817 17.52C164.345 16.912 163.225 15.984 162.457 14.736C161.689 13.488 161.225 12.144 161.065 10.704C160.937 9.264 161.113 7.84 161.593 6.432C162.073 4.992 162.841 3.76 163.897 2.736C164.921 1.808 166.137 1.152 167.545 0.768002C168.985 0.352001 170.569 0.112001 172.297 0.0480022C173.257 0.0160007 174.217 0.0480003 175.177 0.144001C176.169 0.240002 177.113 0.400002 178.009 0.624001C178.937 0.848001 179.785 1.136 180.553 1.488C181.353 1.84 182.041 2.256 182.617 2.736C183.033 3.056 183.449 3.488 183.865 4.032C184.281 4.544 184.601 5.104 184.825 5.712C185.049 6.288 185.113 6.848 185.017 7.392C184.953 7.936 184.617 8.4 184.009 8.784C183.497 9.104 183.001 9.248 182.521 9.216C182.073 9.152 181.641 9.008 181.225 8.784C180.809 8.528 180.409 8.24 180.025 7.92C179.641 7.6 179.289 7.312 178.969 7.056C178.105 6.416 177.033 5.984 175.753 5.76C174.473 5.536 173.273 5.488 172.153 5.616C171.449 5.712 170.793 5.872 170.185 6.096C169.577 6.32 169.049 6.624 168.601 7.008C168.185 7.392 167.849 7.872 167.593 8.448C167.369 8.992 167.289 9.616 167.353 10.32C167.385 10.832 167.529 11.264 167.785 11.616C168.073 11.968 168.409 12.256 168.793 12.48C169.209 12.704 169.657 12.88 170.137 13.008C170.617 13.136 171.097 13.232 171.577 13.296C173.017 13.488 174.457 13.632 175.897 13.728C177.337 13.824 178.745 14.144 180.121 14.688C181.529 15.232 182.729 15.968 183.721 16.896C184.713 17.824 185.417 18.944 185.833 20.256ZM218.156 12.624C218.444 13.04 218.54 13.696 218.444 14.592C218.38 15.456 218.22 16.4 217.964 17.424C217.708 18.416 217.404 19.408 217.052 20.4C216.7 21.36 216.412 22.16 216.188 22.8C215.644 24.272 215.164 25.648 214.748 26.928C214.332 28.208 213.836 29.616 213.26 31.152C213.068 31.6 212.876 32.048 212.684 32.496C212.524 32.944 212.316 33.344 212.06 33.696C211.836 34.048 211.548 34.336 211.196 34.56C210.876 34.784 210.476 34.896 209.996 34.896C209.452 34.896 208.972 34.704 208.556 34.32C208.172 33.936 207.836 33.456 207.548 32.88C207.292 32.304 207.068 31.696 206.876 31.056C206.684 30.416 206.524 29.856 206.396 29.376C205.98 27.968 205.612 26.688 205.292 25.536C204.972 24.352 204.684 23.296 204.428 22.368C204.14 23.296 203.852 24.304 203.564 25.392C203.276 26.48 202.908 27.712 202.46 29.088C202.332 29.568 202.172 30.16 201.98 30.864C201.788 31.536 201.548 32.176 201.26 32.784C201.004 33.392 200.668 33.904 200.252 34.32C199.868 34.768 199.404 34.96 198.86 34.896C198.092 34.864 197.42 34.56 196.844 33.984C196.3 33.376 195.82 32.656 195.404 31.824C195.02 30.992 194.684 30.128 194.396 29.232C194.108 28.336 193.868 27.552 193.676 26.88C193.42 26.016 193.116 25.056 192.764 24C192.412 22.944 192.06 21.872 191.708 20.784C191.388 19.664 191.084 18.56 190.796 17.472C190.508 16.352 190.316 15.328 190.22 14.4C190.156 13.792 190.268 13.232 190.556 12.72C190.876 12.208 191.276 11.856 191.756 11.664C192.268 11.44 192.812 11.392 193.388 11.52C193.996 11.648 194.54 12.032 195.02 12.672C195.276 12.992 195.5 13.392 195.692 13.872C195.916 14.352 196.108 14.88 196.268 15.456C196.428 16 196.588 16.56 196.748 17.136C196.908 17.712 197.068 18.272 197.228 18.816C197.58 20.032 197.868 20.992 198.092 21.696C198.348 22.368 198.604 23.072 198.86 23.808C199.084 23.072 199.308 22.368 199.532 21.696C199.788 20.992 200.092 20.032 200.444 18.816C200.572 18.432 200.716 18 200.876 17.52C201.068 17.008 201.26 16.528 201.452 16.08C201.676 15.632 201.916 15.216 202.172 14.832C202.46 14.416 202.764 14.112 203.084 13.92C203.788 13.44 204.428 13.328 205.004 13.584C205.58 13.808 206.076 14.208 206.492 14.784C206.908 15.36 207.26 16.032 207.548 16.8C207.868 17.536 208.124 18.208 208.316 18.816C208.508 19.456 208.684 20.016 208.844 20.496C209.004 20.944 209.148 21.36 209.276 21.744C209.404 22.128 209.516 22.496 209.612 22.848C209.74 23.2 209.868 23.568 209.996 23.952C210.124 23.568 210.236 23.2 210.332 22.848C210.46 22.496 210.588 22.128 210.716 21.744C210.844 21.36 210.988 20.944 211.148 20.496C211.308 20.016 211.484 19.456 211.676 18.816C211.804 18.4 211.932 17.92 212.06 17.376C212.22 16.832 212.38 16.288 212.54 15.744C212.7 15.168 212.86 14.624 213.02 14.112C213.212 13.6 213.42 13.168 213.644 12.816C213.868 12.464 214.172 12.176 214.556 11.952C214.94 11.696 215.34 11.552 215.756 11.52C216.172 11.456 216.588 11.504 217.004 11.664C217.452 11.824 217.836 12.144 218.156 12.624ZM228.423 16.032C228.423 16.928 228.423 17.936 228.423 19.056C228.455 20.176 228.471 21.344 228.471 22.56C228.471 23.744 228.471 24.928 228.471 26.112C228.471 27.264 228.455 28.336 228.423 29.328C228.391 29.808 228.343 30.336 228.279 30.912C228.215 31.456 228.087 31.968 227.895 32.448C227.703 32.928 227.399 33.328 226.983 33.648C226.599 33.936 226.071 34.064 225.399 34.032C224.407 33.968 223.687 33.536 223.239 32.736C222.823 31.936 222.583 30.816 222.519 29.376C222.519 28.64 222.503 27.792 222.471 26.832C222.471 25.872 222.455 24.896 222.423 23.904C222.423 22.912 222.423 21.952 222.423 21.024C222.423 20.064 222.423 19.2 222.423 18.432C222.423 17.984 222.407 17.44 222.375 16.8C222.375 16.16 222.391 15.504 222.423 14.832C222.455 14.16 222.535 13.52 222.663 12.912C222.791 12.272 222.999 11.744 223.287 11.328C223.511 11.072 223.831 10.88 224.247 10.752C224.663 10.592 225.095 10.512 225.543 10.512C226.023 10.512 226.471 10.592 226.887 10.752C227.335 10.912 227.655 11.136 227.847 11.424C227.975 11.616 228.071 11.888 228.135 12.24C228.199 12.592 228.247 12.992 228.279 13.44C228.343 13.856 228.375 14.304 228.375 14.784C228.407 15.232 228.423 15.648 228.423 16.032ZM226.599 6.336C225.607 6.592 224.775 6.496 224.103 6.048C223.463 5.568 223.063 4.864 222.903 3.936C222.775 3.264 222.823 2.672 223.047 2.16C223.271 1.648 223.607 1.264 224.055 1.008C224.503 0.720001 225.015 0.592001 225.591 0.624001C226.167 0.656 226.743 0.88 227.319 1.296C227.863 1.68 228.247 2.128 228.471 2.64C228.727 3.152 228.807 3.648 228.711 4.128C228.647 4.608 228.439 5.056 228.087 5.472C227.735 5.856 227.239 6.144 226.599 6.336ZM258.657 23.04C258.721 24.064 258.753 25.04 258.753 25.968C258.753 26.864 258.721 27.824 258.657 28.848C258.657 29.232 258.657 29.664 258.657 30.144C258.657 30.624 258.625 31.088 258.561 31.536C258.497 31.984 258.385 32.4 258.225 32.784C258.065 33.168 257.825 33.472 257.505 33.696C257.121 33.952 256.689 34.128 256.209 34.224C255.729 34.288 255.281 34.256 254.865 34.128C254.449 34 254.081 33.76 253.761 33.408C253.473 33.056 253.313 32.56 253.281 31.92C253.185 30.448 253.137 28.976 253.137 27.504C253.137 26.768 253.121 26.064 253.089 25.392C253.089 24.72 253.105 23.776 253.137 22.56C253.137 21.952 253.089 21.264 252.993 20.496C252.897 19.696 252.657 19.136 252.273 18.816C251.985 18.56 251.665 18.416 251.313 18.384C250.961 18.32 250.609 18.352 250.257 18.48C249.937 18.608 249.649 18.848 249.393 19.2C249.137 19.52 248.961 19.936 248.865 20.448C248.865 20.864 248.849 21.296 248.817 21.744C248.817 22.16 248.833 22.56 248.865 22.944C248.897 23.968 248.913 24.944 248.913 25.872C248.913 26.768 248.897 27.728 248.865 28.752C248.833 29.168 248.817 29.616 248.817 30.096C248.849 30.576 248.849 31.056 248.817 31.536C248.785 31.984 248.689 32.4 248.529 32.784C248.401 33.168 248.161 33.472 247.809 33.696C247.425 33.952 247.009 34.112 246.561 34.176C246.145 34.208 245.745 34.144 245.361 33.984C245.009 33.792 244.689 33.504 244.401 33.12C244.145 32.736 244.001 32.224 243.969 31.584C243.905 30.848 243.857 30.176 243.825 29.568C243.825 28.928 243.825 28.256 243.825 27.552C243.825 26.816 243.841 26.064 243.873 25.296C243.905 24.496 243.889 23.728 243.825 22.992C243.825 22.768 243.809 22.512 243.777 22.224C243.777 21.904 243.761 21.584 243.729 21.264C243.729 20.944 243.697 20.64 243.633 20.352C243.601 20.032 243.537 19.776 243.441 19.584C243.185 19.136 242.721 18.848 242.049 18.72C241.409 18.592 240.865 18.64 240.417 18.864C239.969 19.088 239.633 19.376 239.409 19.728C239.185 20.08 239.025 20.464 238.929 20.88C238.833 21.296 238.785 21.744 238.785 22.224C238.785 22.672 238.785 23.104 238.785 23.52C238.785 25.6 238.785 27.408 238.785 28.944C238.817 30.448 238.657 31.664 238.305 32.592C238.145 33.072 237.809 33.44 237.297 33.696C236.817 33.952 236.289 34.08 235.713 34.08C235.169 34.08 234.657 33.952 234.177 33.696C233.697 33.44 233.377 33.04 233.217 32.496C233.121 32.144 233.025 31.648 232.929 31.008C232.865 30.336 232.817 29.6 232.785 28.8C232.753 28 232.737 27.2 232.737 26.4C232.737 25.568 232.737 24.816 232.737 24.144V17.232C232.705 16.496 232.689 15.696 232.689 14.832C232.689 13.968 232.817 13.184 233.073 12.48C233.297 11.872 233.649 11.488 234.129 11.328C234.609 11.136 235.105 11.056 235.617 11.088C236.193 11.088 236.641 11.248 236.961 11.568C237.313 11.856 237.569 12.224 237.729 12.672C237.889 13.088 237.985 13.568 238.017 14.112C238.049 14.624 238.081 15.12 238.113 15.6C238.465 14.8 238.881 14.144 239.361 13.632C239.873 13.088 240.593 12.736 241.521 12.576C243.889 12.128 245.777 12.736 247.185 14.4C247.825 13.76 248.641 13.232 249.633 12.816C250.401 12.528 251.185 12.4 251.985 12.432C252.785 12.432 253.537 12.576 254.241 12.864C254.977 13.152 255.633 13.568 256.209 14.112C256.817 14.656 257.297 15.312 257.649 16.08C258.129 17.104 258.401 18.24 258.465 19.488C258.529 20.736 258.593 21.92 258.657 23.04Z" fill="#121568"/>
</svg>
