<svg width="65" height="9" viewBox="0 0 65 9" fill="none" xmlns="http://www.w3.org/2000/svg">
<path d="M8.568 0.539999C8.6 0.691999 8.6 0.851999 8.568 1.02C8.552 1.1 8.536 1.18 8.52 1.26C8.512 1.332 8.5 1.408 8.484 1.488L8.472 1.536C8.36 2.032 8.232 2.556 8.088 3.108C7.952 3.652 7.828 4.168 7.716 4.656C7.62 5.056 7.52 5.496 7.416 5.976C7.312 6.456 7.204 6.896 7.092 7.296C7.052 7.432 7.008 7.568 6.96 7.704C6.92 7.84 6.868 7.976 6.804 8.112C6.748 8.232 6.68 8.34 6.6 8.436C6.528 8.524 6.444 8.588 6.348 8.628C6.252 8.676 6.148 8.692 6.036 8.676C5.932 8.668 5.816 8.62 5.688 8.532C5.496 8.396 5.352 8.208 5.256 7.968C5.168 7.728 5.076 7.508 4.98 7.308C4.948 7.252 4.9 7.128 4.836 6.936C4.772 6.744 4.704 6.536 4.632 6.312C4.56 6.08 4.488 5.86 4.416 5.652C4.352 5.436 4.296 5.276 4.248 5.172C4.176 5.348 4.104 5.548 4.032 5.772C3.96 5.996 3.892 6.216 3.828 6.432C3.764 6.648 3.704 6.844 3.648 7.02C3.6 7.188 3.564 7.312 3.54 7.392C3.476 7.552 3.404 7.728 3.324 7.92C3.252 8.112 3.16 8.276 3.048 8.412C2.944 8.548 2.816 8.636 2.664 8.676C2.512 8.724 2.332 8.68 2.124 8.544C1.964 8.448 1.852 8.312 1.788 8.136C1.748 8.024 1.708 7.916 1.668 7.812C1.628 7.708 1.596 7.6 1.572 7.488L1.332 6.588L0.839997 4.656C0.775997 4.408 0.711997 4.156 0.647997 3.9C0.591997 3.636 0.523997 3.364 0.443997 3.084C0.403997 2.948 0.367997 2.816 0.335997 2.688C0.311997 2.552 0.283997 2.408 0.251997 2.256C0.227997 2.096 0.195997 1.916 0.155997 1.716C0.123997 1.516 0.0839967 1.284 0.0359967 1.02C0.0199967 0.931999 0.00799666 0.851999 -3.32296e-06 0.78C-3.32296e-06 0.699999 0.00799668 0.619999 0.0239967 0.539999C0.0399967 0.419999 0.0959967 0.316 0.191997 0.228C0.231997 0.187999 0.279997 0.155999 0.335997 0.131999C0.391997 0.107999 0.451997 0.0879993 0.515997 0.0719995C0.611997 0.0399995 0.711997 0.0239995 0.815997 0.0239995C0.911997 0.0239995 1.012 0.0559995 1.116 0.12C1.188 0.16 1.244 0.211999 1.284 0.275999L1.428 0.527999C1.444 0.583999 1.46 0.635999 1.476 0.684C1.492 0.724 1.508 0.767999 1.524 0.815999C1.54 0.872 1.552 0.924 1.56 0.971999C1.568 1.012 1.576 1.052 1.584 1.092C1.656 1.508 1.744 1.912 1.848 2.304C1.952 2.696 2.048 3.072 2.136 3.432C2.168 3.576 2.208 3.756 2.256 3.972C2.304 4.18 2.352 4.4 2.4 4.632C2.448 4.856 2.496 5.072 2.544 5.28C2.592 5.488 2.64 5.652 2.688 5.772C2.792 5.412 2.896 5.052 3 4.692C3.112 4.332 3.232 3.968 3.36 3.6C3.424 3.408 3.488 3.236 3.552 3.084C3.624 2.924 3.704 2.792 3.792 2.688C3.88 2.584 3.98 2.516 4.092 2.484C4.204 2.452 4.336 2.464 4.488 2.52C4.624 2.576 4.744 2.696 4.848 2.88C4.952 3.064 5.044 3.252 5.124 3.444C5.196 3.62 5.264 3.808 5.328 4.008C5.4 4.2 5.468 4.392 5.532 4.584C5.604 4.768 5.672 4.944 5.736 5.112C5.8 5.28 5.864 5.424 5.928 5.544C5.952 5.456 5.98 5.344 6.012 5.208C6.044 5.072 6.076 4.928 6.108 4.776C6.148 4.616 6.184 4.46 6.216 4.308C6.248 4.156 6.28 4.016 6.312 3.888C6.416 3.456 6.524 3.024 6.636 2.592C6.748 2.152 6.856 1.72 6.96 1.296L7.02 1.092C7.036 1.052 7.044 1.012 7.044 0.971999C7.052 0.924 7.064 0.872 7.08 0.815999C7.096 0.767999 7.112 0.724 7.128 0.684C7.144 0.635999 7.16 0.583999 7.176 0.527999C7.192 0.487999 7.208 0.447999 7.224 0.408C7.248 0.359999 7.276 0.315999 7.308 0.275999C7.332 0.235999 7.36 0.203999 7.392 0.18C7.424 0.155999 7.456 0.135999 7.488 0.12C7.6 0.0559995 7.696 0.0239995 7.776 0.0239995C7.88 0.0239995 7.98 0.0399995 8.076 0.0719995C8.204 0.0959992 8.32 0.147999 8.424 0.228C8.504 0.308 8.552 0.411999 8.568 0.539999ZM13.1989 6.912C13.2949 6.888 13.3909 6.872 13.4869 6.864C13.5909 6.856 13.6829 6.868 13.7629 6.9C13.8509 6.932 13.9229 6.988 13.9789 7.068C14.0349 7.14 14.0629 7.244 14.0629 7.38C14.0629 7.476 14.0389 7.568 13.9909 7.656C13.9429 7.744 13.8829 7.824 13.8109 7.896C13.7389 7.968 13.6589 8.032 13.5709 8.088C13.4829 8.136 13.3989 8.176 13.3189 8.208C13.0869 8.312 12.8189 8.392 12.5149 8.448C12.2189 8.504 11.9109 8.524 11.5909 8.508C11.1589 8.492 10.7429 8.408 10.3429 8.256C9.95087 8.096 9.64287 7.836 9.41887 7.476C9.21087 7.124 9.08687 6.732 9.04687 6.3C9.00687 5.868 9.02687 5.46 9.10687 5.076C9.19487 4.612 9.34287 4.236 9.55087 3.948C9.76687 3.652 10.0229 3.416 10.3189 3.24C10.6789 3.032 11.0829 2.924 11.5309 2.916C11.9789 2.908 12.4069 2.996 12.8149 3.18C13.0869 3.3 13.3309 3.464 13.5469 3.672C13.7629 3.872 13.9269 4.116 14.0389 4.404C14.0709 4.476 14.0949 4.564 14.1109 4.668C14.1349 4.772 14.1509 4.884 14.1589 5.004C14.1669 5.116 14.1669 5.228 14.1589 5.34C14.1509 5.452 14.1309 5.552 14.0989 5.64C14.0509 5.784 13.9909 5.896 13.9189 5.976C13.8469 6.056 13.7549 6.116 13.6429 6.156C13.5309 6.196 13.3949 6.224 13.2349 6.24C13.0829 6.248 12.8989 6.256 12.6829 6.264C12.4909 6.272 12.3109 6.276 12.1429 6.276C11.9749 6.276 11.8029 6.276 11.6269 6.276C11.4509 6.268 11.2669 6.264 11.0749 6.264C10.8909 6.256 10.6829 6.248 10.4509 6.24C10.4269 6.4 10.4469 6.54 10.5109 6.66C10.5829 6.772 10.6789 6.868 10.7989 6.948C10.9189 7.02 11.0549 7.076 11.2069 7.116C11.3589 7.156 11.5069 7.18 11.6509 7.188C11.9229 7.204 12.1829 7.184 12.4309 7.128C12.6789 7.064 12.9349 6.992 13.1989 6.912ZM12.6829 4.584C12.5309 4.408 12.3709 4.28 12.2029 4.2C12.0749 4.144 11.9389 4.12 11.7949 4.128C11.6589 4.128 11.5269 4.148 11.3989 4.188C11.1669 4.244 10.9709 4.364 10.8109 4.548C10.7949 4.564 10.7669 4.604 10.7269 4.668C10.6869 4.724 10.6469 4.784 10.6069 4.848C10.5749 4.912 10.5509 4.972 10.5349 5.028C10.5189 5.084 10.5269 5.112 10.5589 5.112H12.9109C12.9029 5 12.8829 4.908 12.8509 4.836C12.8189 4.756 12.7629 4.672 12.6829 4.584ZM27.2946 0.539999C27.3266 0.691999 27.3266 0.851999 27.2946 1.02C27.2786 1.1 27.2626 1.18 27.2466 1.26C27.2386 1.332 27.2266 1.408 27.2106 1.488L27.1986 1.536C27.0866 2.032 26.9586 2.556 26.8146 3.108C26.6786 3.652 26.5546 4.168 26.4426 4.656C26.3466 5.056 26.2466 5.496 26.1426 5.976C26.0386 6.456 25.9306 6.896 25.8186 7.296C25.7786 7.432 25.7346 7.568 25.6866 7.704C25.6466 7.84 25.5946 7.976 25.5306 8.112C25.4746 8.232 25.4066 8.34 25.3266 8.436C25.2546 8.524 25.1706 8.588 25.0746 8.628C24.9786 8.676 24.8746 8.692 24.7626 8.676C24.6586 8.668 24.5426 8.62 24.4146 8.532C24.2226 8.396 24.0786 8.208 23.9826 7.968C23.8946 7.728 23.8026 7.508 23.7066 7.308C23.6746 7.252 23.6266 7.128 23.5626 6.936C23.4986 6.744 23.4306 6.536 23.3586 6.312C23.2866 6.08 23.2146 5.86 23.1426 5.652C23.0786 5.436 23.0226 5.276 22.9746 5.172C22.9026 5.348 22.8306 5.548 22.7586 5.772C22.6866 5.996 22.6186 6.216 22.5546 6.432C22.4906 6.648 22.4306 6.844 22.3746 7.02C22.3266 7.188 22.2906 7.312 22.2666 7.392C22.2026 7.552 22.1306 7.728 22.0506 7.92C21.9786 8.112 21.8866 8.276 21.7746 8.412C21.6706 8.548 21.5426 8.636 21.3906 8.676C21.2386 8.724 21.0586 8.68 20.8506 8.544C20.6906 8.448 20.5786 8.312 20.5146 8.136C20.4746 8.024 20.4346 7.916 20.3946 7.812C20.3546 7.708 20.3226 7.6 20.2986 7.488L20.0586 6.588L19.5666 4.656C19.5026 4.408 19.4386 4.156 19.3746 3.9C19.3186 3.636 19.2506 3.364 19.1706 3.084C19.1306 2.948 19.0946 2.816 19.0626 2.688C19.0386 2.552 19.0106 2.408 18.9786 2.256C18.9546 2.096 18.9226 1.916 18.8826 1.716C18.8506 1.516 18.8106 1.284 18.7626 1.02C18.7466 0.931999 18.7346 0.851999 18.7266 0.78C18.7266 0.699999 18.7346 0.619999 18.7506 0.539999C18.7666 0.419999 18.8226 0.316 18.9186 0.228C18.9586 0.187999 19.0066 0.155999 19.0626 0.131999C19.1186 0.107999 19.1786 0.0879993 19.2426 0.0719995C19.3386 0.0399995 19.4386 0.0239995 19.5426 0.0239995C19.6386 0.0239995 19.7386 0.0559995 19.8426 0.12C19.9146 0.16 19.9706 0.211999 20.0106 0.275999L20.1546 0.527999C20.1706 0.583999 20.1866 0.635999 20.2026 0.684C20.2186 0.724 20.2346 0.767999 20.2506 0.815999C20.2666 0.872 20.2786 0.924 20.2866 0.971999C20.2946 1.012 20.3026 1.052 20.3106 1.092C20.3826 1.508 20.4706 1.912 20.5746 2.304C20.6786 2.696 20.7746 3.072 20.8626 3.432C20.8946 3.576 20.9346 3.756 20.9826 3.972C21.0306 4.18 21.0786 4.4 21.1266 4.632C21.1746 4.856 21.2226 5.072 21.2706 5.28C21.3186 5.488 21.3666 5.652 21.4146 5.772C21.5186 5.412 21.6226 5.052 21.7266 4.692C21.8386 4.332 21.9586 3.968 22.0866 3.6C22.1506 3.408 22.2146 3.236 22.2786 3.084C22.3506 2.924 22.4306 2.792 22.5186 2.688C22.6066 2.584 22.7066 2.516 22.8186 2.484C22.9306 2.452 23.0626 2.464 23.2146 2.52C23.3506 2.576 23.4706 2.696 23.5746 2.88C23.6786 3.064 23.7706 3.252 23.8506 3.444C23.9226 3.62 23.9906 3.808 24.0546 4.008C24.1266 4.2 24.1946 4.392 24.2586 4.584C24.3306 4.768 24.3986 4.944 24.4626 5.112C24.5266 5.28 24.5906 5.424 24.6546 5.544C24.6786 5.456 24.7066 5.344 24.7386 5.208C24.7706 5.072 24.8026 4.928 24.8346 4.776C24.8746 4.616 24.9106 4.46 24.9426 4.308C24.9746 4.156 25.0066 4.016 25.0386 3.888C25.1426 3.456 25.2506 3.024 25.3626 2.592C25.4746 2.152 25.5826 1.72 25.6866 1.296L25.7466 1.092C25.7626 1.052 25.7706 1.012 25.7706 0.971999C25.7786 0.924 25.7906 0.872 25.8066 0.815999C25.8226 0.767999 25.8386 0.724 25.8546 0.684C25.8706 0.635999 25.8866 0.583999 25.9026 0.527999C25.9186 0.487999 25.9346 0.447999 25.9506 0.408C25.9746 0.359999 26.0026 0.315999 26.0346 0.275999C26.0586 0.235999 26.0866 0.203999 26.1186 0.18C26.1506 0.155999 26.1826 0.135999 26.2146 0.12C26.3266 0.0559995 26.4226 0.0239995 26.5026 0.0239995C26.6066 0.0239995 26.7066 0.0399995 26.8026 0.0719995C26.9306 0.0959992 27.0466 0.147999 27.1506 0.228C27.2306 0.308 27.2786 0.411999 27.2946 0.539999ZM29.8011 4.008C29.8011 4.232 29.8011 4.484 29.8011 4.764C29.8091 5.044 29.8131 5.336 29.8131 5.64C29.8131 5.936 29.8131 6.232 29.8131 6.528C29.8131 6.816 29.8091 7.084 29.8011 7.332C29.7931 7.452 29.7811 7.584 29.7651 7.728C29.7491 7.864 29.7171 7.992 29.6691 8.112C29.6211 8.232 29.5451 8.332 29.4411 8.412C29.3451 8.484 29.2131 8.516 29.0451 8.508C28.7971 8.492 28.6171 8.384 28.5051 8.184C28.4011 7.984 28.3411 7.704 28.3251 7.344C28.3251 7.16 28.3211 6.948 28.3131 6.708C28.3131 6.468 28.3091 6.224 28.3011 5.976C28.3011 5.728 28.3011 5.488 28.3011 5.256C28.3011 5.016 28.3011 4.8 28.3011 4.608C28.3011 4.496 28.2971 4.36 28.2891 4.2C28.2891 4.04 28.2931 3.876 28.3011 3.708C28.3091 3.54 28.3291 3.38 28.3611 3.228C28.3931 3.068 28.4451 2.936 28.5171 2.832C28.5731 2.768 28.6531 2.72 28.7571 2.688C28.8611 2.648 28.9691 2.628 29.0811 2.628C29.2011 2.628 29.3131 2.648 29.4171 2.688C29.5291 2.728 29.6091 2.784 29.6571 2.856C29.6891 2.904 29.7131 2.972 29.7291 3.06C29.7451 3.148 29.7571 3.248 29.7651 3.36C29.7811 3.464 29.7891 3.576 29.7891 3.696C29.7971 3.808 29.8011 3.912 29.8011 4.008ZM29.3451 1.584C29.0971 1.648 28.8891 1.624 28.7211 1.512C28.5611 1.392 28.4611 1.216 28.4211 0.983999C28.3891 0.816 28.4011 0.668 28.4571 0.539999C28.5131 0.411999 28.5971 0.316 28.7091 0.251999C28.8211 0.179999 28.9491 0.147999 29.0931 0.155999C29.2371 0.163999 29.3811 0.219999 29.5251 0.323999C29.6611 0.419999 29.7571 0.531999 29.8131 0.659999C29.8771 0.787999 29.8971 0.911999 29.8731 1.032C29.8571 1.152 29.8051 1.264 29.7171 1.368C29.6291 1.464 29.5051 1.536 29.3451 1.584ZM32.5687 7.596C32.5607 7.636 32.5527 7.676 32.5447 7.716C32.5447 7.748 32.5447 7.784 32.5447 7.824L32.4727 8.076C32.4567 8.108 32.4447 8.128 32.4367 8.136L32.4007 8.208C32.3607 8.296 32.2887 8.368 32.1847 8.424C31.9927 8.52 31.7887 8.544 31.5727 8.496C31.4367 8.48 31.3287 8.44 31.2487 8.376C31.1687 8.32 31.1127 8.252 31.0807 8.172C31.0487 8.092 31.0247 8.012 31.0087 7.932C30.9847 7.852 30.9727 7.78 30.9727 7.716V0.995999C30.9727 0.939999 30.9727 0.891999 30.9727 0.852C30.9807 0.804 30.9887 0.76 30.9967 0.719999C31.0047 0.663999 31.0127 0.615999 31.0207 0.575999C31.0367 0.536 31.0527 0.491999 31.0687 0.443999C31.0927 0.363999 31.1367 0.299999 31.2007 0.251999C31.2967 0.179999 31.3887 0.139999 31.4767 0.131999C31.5327 0.115999 31.5847 0.107999 31.6327 0.107999C31.6807 0.0999992 31.7367 0.0959992 31.8007 0.0959992C31.9127 0.0959992 32.0407 0.127999 32.1847 0.191999C32.2967 0.256 32.3767 0.344 32.4247 0.456C32.5047 0.615999 32.5447 0.763999 32.5447 0.9C32.5527 0.98 32.5567 1.1 32.5567 1.26C32.5647 1.42 32.5687 1.54 32.5687 1.62V1.668C32.5847 1.924 32.5927 2.172 32.5927 2.412C32.5927 2.644 32.5887 2.9 32.5807 3.18C32.5807 3.452 32.5767 3.716 32.5687 3.972C32.5687 4.22 32.5687 4.468 32.5687 4.716V7.236C32.5687 7.268 32.5687 7.3 32.5687 7.332C32.5767 7.356 32.5807 7.384 32.5807 7.416C32.5807 7.496 32.5767 7.556 32.5687 7.596ZM35.6624 7.596C35.6544 7.636 35.6464 7.676 35.6384 7.716C35.6384 7.748 35.6384 7.784 35.6384 7.824L35.5664 8.076C35.5504 8.108 35.5384 8.128 35.5304 8.136L35.4944 8.208C35.4544 8.296 35.3824 8.368 35.2784 8.424C35.0864 8.52 34.8824 8.544 34.6664 8.496C34.5304 8.48 34.4224 8.44 34.3424 8.376C34.2624 8.32 34.2064 8.252 34.1744 8.172C34.1424 8.092 34.1184 8.012 34.1024 7.932C34.0784 7.852 34.0664 7.78 34.0664 7.716V0.995999C34.0664 0.939999 34.0664 0.891999 34.0664 0.852C34.0744 0.804 34.0824 0.76 34.0904 0.719999C34.0984 0.663999 34.1064 0.615999 34.1144 0.575999C34.1304 0.536 34.1464 0.491999 34.1624 0.443999C34.1864 0.363999 34.2304 0.299999 34.2944 0.251999C34.3904 0.179999 34.4824 0.139999 34.5704 0.131999C34.6264 0.115999 34.6784 0.107999 34.7264 0.107999C34.7744 0.0999992 34.8304 0.0959992 34.8944 0.0959992C35.0064 0.0959992 35.1344 0.127999 35.2784 0.191999C35.3904 0.256 35.4704 0.344 35.5184 0.456C35.5984 0.615999 35.6384 0.763999 35.6384 0.9C35.6464 0.98 35.6504 1.1 35.6504 1.26C35.6584 1.42 35.6624 1.54 35.6624 1.62V1.668C35.6784 1.924 35.6864 2.172 35.6864 2.412C35.6864 2.644 35.6824 2.9 35.6744 3.18C35.6744 3.452 35.6704 3.716 35.6624 3.972C35.6624 4.22 35.6624 4.468 35.6624 4.716V7.236C35.6624 7.268 35.6624 7.3 35.6624 7.332C35.6704 7.356 35.6744 7.384 35.6744 7.416C35.6744 7.496 35.6704 7.556 35.6624 7.596ZM46.4582 5.064C46.4982 5.176 46.5262 5.304 46.5422 5.448C46.5662 5.584 46.5782 5.724 46.5782 5.868C46.5782 6.012 46.5662 6.156 46.5422 6.3C46.5262 6.436 46.5022 6.556 46.4702 6.66C46.3422 7.108 46.0862 7.484 45.7022 7.788C45.3182 8.084 44.8782 8.3 44.3822 8.436C43.8942 8.572 43.3862 8.62 42.8582 8.58C42.3382 8.54 41.8742 8.408 41.4662 8.184C41.2102 8.04 40.9902 7.864 40.8062 7.656C40.6222 7.448 40.4662 7.216 40.3382 6.96C40.2902 6.872 40.2582 6.772 40.2422 6.66C40.2342 6.54 40.2462 6.428 40.2782 6.324C40.3102 6.212 40.3622 6.116 40.4342 6.036C40.5062 5.948 40.6062 5.888 40.7342 5.856C40.8142 5.84 40.9022 5.832 40.9982 5.832C41.1022 5.832 41.2022 5.848 41.2982 5.88C41.3942 5.904 41.4822 5.948 41.5622 6.012C41.6422 6.068 41.7062 6.148 41.7542 6.252C41.8422 6.42 41.9662 6.576 42.1262 6.72C42.2942 6.856 42.4702 6.968 42.6542 7.056C42.9182 7.144 43.1822 7.18 43.4462 7.164C43.7182 7.148 43.9622 7.088 44.1782 6.984C44.4022 6.88 44.5822 6.74 44.7182 6.564C44.8542 6.38 44.9222 6.172 44.9222 5.94C44.9222 5.748 44.8942 5.592 44.8382 5.472C44.7822 5.344 44.7022 5.24 44.5982 5.16C44.5022 5.072 44.3822 5 44.2382 4.944C44.1022 4.888 43.9502 4.84 43.7822 4.8C43.5902 4.76 43.3942 4.732 43.1942 4.716C43.0022 4.7 42.8062 4.68 42.6062 4.656C42.4062 4.632 42.2102 4.6 42.0182 4.56C41.8262 4.52 41.6382 4.46 41.4542 4.38C41.0862 4.228 40.8062 3.996 40.6142 3.684C40.4222 3.372 40.3062 3.036 40.2662 2.676C40.2342 2.316 40.2782 1.96 40.3982 1.608C40.5182 1.248 40.7102 0.94 40.9742 0.684C41.2302 0.451999 41.5342 0.287999 41.8862 0.191999C42.2462 0.0879993 42.6422 0.0279994 43.0742 0.0119996C43.3142 0.00399923 43.5542 0.0119991 43.7942 0.0359993C44.0422 0.0599995 44.2782 0.0999994 44.5022 0.155999C44.7342 0.211999 44.9462 0.283999 45.1382 0.371999C45.3382 0.46 45.5102 0.564 45.6542 0.684C45.7582 0.763999 45.8622 0.872 45.9662 1.008C46.0702 1.136 46.1502 1.276 46.2062 1.428C46.2622 1.572 46.2782 1.712 46.2542 1.848C46.2382 1.984 46.1542 2.1 46.0022 2.196C45.8742 2.276 45.7502 2.312 45.6302 2.304C45.5182 2.288 45.4102 2.252 45.3062 2.196C45.2022 2.132 45.1022 2.06 45.0062 1.98C44.9102 1.9 44.8222 1.828 44.7422 1.764C44.5262 1.604 44.2582 1.496 43.9382 1.44C43.6182 1.384 43.3182 1.372 43.0382 1.404C42.8622 1.428 42.6982 1.468 42.5462 1.524C42.3942 1.58 42.2622 1.656 42.1502 1.752C42.0462 1.848 41.9622 1.968 41.8982 2.112C41.8422 2.248 41.8222 2.404 41.8382 2.58C41.8462 2.708 41.8822 2.816 41.9462 2.904C42.0182 2.992 42.1022 3.064 42.1982 3.12C42.3022 3.176 42.4142 3.22 42.5342 3.252C42.6542 3.284 42.7742 3.308 42.8942 3.324C43.2542 3.372 43.6142 3.408 43.9742 3.432C44.3342 3.456 44.6862 3.536 45.0302 3.672C45.3822 3.808 45.6822 3.992 45.9302 4.224C46.1782 4.456 46.3542 4.736 46.4582 5.064ZM54.539 3.156C54.611 3.26 54.635 3.424 54.611 3.648C54.595 3.864 54.555 4.1 54.491 4.356C54.427 4.604 54.351 4.852 54.263 5.1C54.175 5.34 54.103 5.54 54.047 5.7C53.911 6.068 53.791 6.412 53.687 6.732C53.583 7.052 53.459 7.404 53.315 7.788C53.267 7.9 53.219 8.012 53.171 8.124C53.131 8.236 53.079 8.336 53.015 8.424C52.959 8.512 52.887 8.584 52.799 8.64C52.719 8.696 52.619 8.724 52.499 8.724C52.363 8.724 52.243 8.676 52.139 8.58C52.043 8.484 51.959 8.364 51.887 8.22C51.823 8.076 51.767 7.924 51.719 7.764C51.671 7.604 51.631 7.464 51.599 7.344C51.495 6.992 51.403 6.672 51.323 6.384C51.243 6.088 51.171 5.824 51.107 5.592C51.035 5.824 50.963 6.076 50.891 6.348C50.819 6.62 50.727 6.928 50.615 7.272C50.583 7.392 50.543 7.54 50.495 7.716C50.447 7.884 50.387 8.044 50.315 8.196C50.251 8.348 50.167 8.476 50.063 8.58C49.967 8.692 49.851 8.74 49.715 8.724C49.523 8.716 49.355 8.64 49.211 8.496C49.075 8.344 48.955 8.164 48.851 7.956C48.755 7.748 48.671 7.532 48.599 7.308C48.527 7.084 48.467 6.888 48.419 6.72C48.355 6.504 48.279 6.264 48.191 6C48.103 5.736 48.015 5.468 47.927 5.196C47.847 4.916 47.771 4.64 47.699 4.368C47.627 4.088 47.579 3.832 47.555 3.6C47.539 3.448 47.567 3.308 47.639 3.18C47.719 3.052 47.819 2.964 47.939 2.916C48.067 2.86 48.203 2.848 48.347 2.88C48.499 2.912 48.635 3.008 48.755 3.168C48.819 3.248 48.875 3.348 48.923 3.468C48.979 3.588 49.027 3.72 49.067 3.864C49.107 4 49.147 4.14 49.187 4.284C49.227 4.428 49.267 4.568 49.307 4.704C49.395 5.008 49.467 5.248 49.523 5.424C49.587 5.592 49.651 5.768 49.715 5.952C49.771 5.768 49.827 5.592 49.883 5.424C49.947 5.248 50.023 5.008 50.111 4.704C50.143 4.608 50.179 4.5 50.219 4.38C50.267 4.252 50.315 4.132 50.363 4.02C50.419 3.908 50.479 3.804 50.543 3.708C50.615 3.604 50.691 3.528 50.771 3.48C50.947 3.36 51.107 3.332 51.251 3.396C51.395 3.452 51.519 3.552 51.623 3.696C51.727 3.84 51.815 4.008 51.887 4.2C51.967 4.384 52.031 4.552 52.079 4.704C52.127 4.864 52.171 5.004 52.211 5.124C52.251 5.236 52.287 5.34 52.319 5.436C52.351 5.532 52.379 5.624 52.403 5.712C52.435 5.8 52.467 5.892 52.499 5.988C52.531 5.892 52.559 5.8 52.583 5.712C52.615 5.624 52.647 5.532 52.679 5.436C52.711 5.34 52.747 5.236 52.787 5.124C52.827 5.004 52.871 4.864 52.919 4.704C52.951 4.6 52.983 4.48 53.015 4.344C53.055 4.208 53.095 4.072 53.135 3.936C53.175 3.792 53.215 3.656 53.255 3.528C53.303 3.4 53.355 3.292 53.411 3.204C53.467 3.116 53.543 3.044 53.639 2.988C53.735 2.924 53.835 2.888 53.939 2.88C54.043 2.864 54.147 2.876 54.251 2.916C54.363 2.956 54.459 3.036 54.539 3.156ZM57.1057 4.008C57.1057 4.232 57.1057 4.484 57.1057 4.764C57.1137 5.044 57.1177 5.336 57.1177 5.64C57.1177 5.936 57.1177 6.232 57.1177 6.528C57.1177 6.816 57.1137 7.084 57.1057 7.332C57.0977 7.452 57.0857 7.584 57.0697 7.728C57.0537 7.864 57.0217 7.992 56.9737 8.112C56.9257 8.232 56.8497 8.332 56.7457 8.412C56.6497 8.484 56.5177 8.516 56.3497 8.508C56.1017 8.492 55.9217 8.384 55.8097 8.184C55.7057 7.984 55.6457 7.704 55.6297 7.344C55.6297 7.16 55.6257 6.948 55.6177 6.708C55.6177 6.468 55.6137 6.224 55.6057 5.976C55.6057 5.728 55.6057 5.488 55.6057 5.256C55.6057 5.016 55.6057 4.8 55.6057 4.608C55.6057 4.496 55.6017 4.36 55.5937 4.2C55.5937 4.04 55.5977 3.876 55.6057 3.708C55.6137 3.54 55.6337 3.38 55.6657 3.228C55.6977 3.068 55.7497 2.936 55.8217 2.832C55.8777 2.768 55.9577 2.72 56.0617 2.688C56.1657 2.648 56.2737 2.628 56.3857 2.628C56.5057 2.628 56.6177 2.648 56.7217 2.688C56.8337 2.728 56.9137 2.784 56.9617 2.856C56.9937 2.904 57.0177 2.972 57.0337 3.06C57.0497 3.148 57.0617 3.248 57.0697 3.36C57.0857 3.464 57.0937 3.576 57.0937 3.696C57.1017 3.808 57.1057 3.912 57.1057 4.008ZM56.6497 1.584C56.4017 1.648 56.1937 1.624 56.0257 1.512C55.8657 1.392 55.7657 1.216 55.7257 0.983999C55.6937 0.816 55.7057 0.668 55.7617 0.539999C55.8177 0.411999 55.9017 0.316 56.0137 0.251999C56.1257 0.179999 56.2537 0.147999 56.3977 0.155999C56.5417 0.163999 56.6857 0.219999 56.8297 0.323999C56.9657 0.419999 57.0617 0.531999 57.1177 0.659999C57.1817 0.787999 57.2017 0.911999 57.1777 1.032C57.1617 1.152 57.1097 1.264 57.0217 1.368C56.9337 1.464 56.8097 1.536 56.6497 1.584ZM64.6642 5.76C64.6802 6.016 64.6882 6.26 64.6882 6.492C64.6882 6.716 64.6802 6.956 64.6642 7.212C64.6642 7.308 64.6642 7.416 64.6642 7.536C64.6642 7.656 64.6562 7.772 64.6402 7.884C64.6242 7.996 64.5962 8.1 64.5562 8.196C64.5162 8.292 64.4562 8.368 64.3762 8.424C64.2802 8.488 64.1722 8.532 64.0522 8.556C63.9322 8.572 63.8202 8.564 63.7162 8.532C63.6122 8.5 63.5202 8.44 63.4402 8.352C63.3682 8.264 63.3282 8.14 63.3202 7.98C63.2962 7.612 63.2842 7.244 63.2842 6.876C63.2842 6.692 63.2802 6.516 63.2722 6.348C63.2722 6.18 63.2762 5.944 63.2842 5.64C63.2842 5.488 63.2722 5.316 63.2482 5.124C63.2242 4.924 63.1642 4.784 63.0682 4.704C62.9962 4.64 62.9162 4.604 62.8282 4.596C62.7402 4.58 62.6522 4.588 62.5642 4.62C62.4842 4.652 62.4122 4.712 62.3482 4.8C62.2842 4.88 62.2402 4.984 62.2162 5.112C62.2162 5.216 62.2122 5.324 62.2042 5.436C62.2042 5.54 62.2082 5.64 62.2162 5.736C62.2242 5.992 62.2282 6.236 62.2282 6.468C62.2282 6.692 62.2242 6.932 62.2162 7.188C62.2082 7.292 62.2042 7.404 62.2042 7.524C62.2122 7.644 62.2122 7.764 62.2042 7.884C62.1962 7.996 62.1722 8.1 62.1322 8.196C62.1002 8.292 62.0402 8.368 61.9522 8.424C61.8562 8.488 61.7522 8.528 61.6402 8.544C61.5362 8.552 61.4362 8.536 61.3402 8.496C61.2522 8.448 61.1722 8.376 61.1002 8.28C61.0362 8.184 61.0002 8.056 60.9922 7.896C60.9762 7.712 60.9642 7.544 60.9562 7.392C60.9562 7.232 60.9562 7.064 60.9562 6.888C60.9562 6.704 60.9602 6.516 60.9682 6.324C60.9762 6.124 60.9722 5.932 60.9562 5.748C60.9562 5.692 60.9522 5.628 60.9442 5.556C60.9442 5.476 60.9402 5.396 60.9322 5.316C60.9322 5.236 60.9242 5.16 60.9082 5.088C60.9002 5.008 60.8842 4.944 60.8602 4.896C60.7962 4.784 60.6802 4.712 60.5122 4.68C60.3522 4.648 60.2162 4.66 60.1042 4.716C59.9922 4.772 59.9082 4.844 59.8522 4.932C59.7962 5.02 59.7562 5.116 59.7322 5.22C59.7082 5.324 59.6962 5.436 59.6962 5.556C59.6962 5.668 59.6962 5.776 59.6962 5.88C59.6962 6.4 59.6962 6.852 59.6962 7.236C59.7042 7.612 59.6642 7.916 59.5762 8.148C59.5362 8.268 59.4522 8.36 59.3242 8.424C59.2042 8.488 59.0722 8.52 58.9282 8.52C58.7922 8.52 58.6642 8.488 58.5442 8.424C58.4242 8.36 58.3442 8.26 58.3042 8.124C58.2802 8.036 58.2562 7.912 58.2322 7.752C58.2162 7.584 58.2042 7.4 58.1962 7.2C58.1882 7 58.1842 6.8 58.1842 6.6C58.1842 6.392 58.1842 6.204 58.1842 6.036V4.308C58.1762 4.124 58.1722 3.924 58.1722 3.708C58.1722 3.492 58.2042 3.296 58.2682 3.12C58.3242 2.968 58.4122 2.872 58.5322 2.832C58.6522 2.784 58.7762 2.764 58.9042 2.772C59.0482 2.772 59.1602 2.812 59.2402 2.892C59.3282 2.964 59.3922 3.056 59.4322 3.168C59.4722 3.272 59.4962 3.392 59.5042 3.528C59.5122 3.656 59.5202 3.78 59.5282 3.9C59.6162 3.7 59.7202 3.536 59.8402 3.408C59.9682 3.272 60.1482 3.184 60.3802 3.144C60.9722 3.032 61.4442 3.184 61.7962 3.6C61.9562 3.44 62.1602 3.308 62.4082 3.204C62.6002 3.132 62.7962 3.1 62.9962 3.108C63.1962 3.108 63.3842 3.144 63.5602 3.216C63.7442 3.288 63.9082 3.392 64.0522 3.528C64.2042 3.664 64.3242 3.828 64.4122 4.02C64.5322 4.276 64.6002 4.56 64.6162 4.872C64.6322 5.184 64.6482 5.48 64.6642 5.76Z" fill="#121568"/>
</svg>
